<?xml version="1.0" encoding="UTF-8" standalone="no"?>
<!DOCTYPE svg PUBLIC "-//W3C//DTD SVG 1.1//EN"
 "http://www.w3.org/Graphics/SVG/1.1/DTD/svg11.dtd">
<!-- Generated by graphviz version 13.0.1 (20250615.1724)
 -->
<!-- Pages: 1 -->
<svg width="1142pt" height="128pt"
 viewBox="0.00 0.00 1142.00 128.00" xmlns="http://www.w3.org/2000/svg" xmlns:xlink="http://www.w3.org/1999/xlink">
<g id="graph0" class="graph" transform="scale(1 1) rotate(0) translate(4 124)">
<polygon fill="white" stroke="none" points="-4,4 -4,-124 1138,-124 1138,4 -4,4"/>
<!-- 4659332112 -->
<g id="node1" class="node">
<title>4659332112</title>
<polygon fill="none" stroke="black" points="316.5,-83.5 316.5,-119.5 499.5,-119.5 499.5,-83.5 316.5,-83.5"/>
<text xml:space="preserve" text-anchor="middle" x="327.5" y="-96.7" font-family="Times,serif" font-size="14.00">c</text>
<polyline fill="none" stroke="black" points="338.5,-84 338.5,-119.5"/>
<text xml:space="preserve" text-anchor="middle" x="378.38" y="-96.7" font-family="Times,serif" font-size="14.00">data 1.0000</text>
<polyline fill="none" stroke="black" points="418.25,-84 418.25,-119.5"/>
<text xml:space="preserve" text-anchor="middle" x="458.88" y="-96.7" font-family="Times,serif" font-size="14.00">grad 0.0000</text>
</g>
<!-- 4363201776+ -->
<g id="node6" class="node">
<title>4363201776+</title>
<ellipse fill="none" stroke="black" cx="564.75" cy="-73.5" rx="27" ry="18"/>
<text xml:space="preserve" text-anchor="middle" x="564.75" y="-68.45" font-family="Times,serif" font-size="14.00">+</text>
</g>
<!-- 4659332112&#45;&gt;4363201776+ -->
<g id="edge7" class="edge">
<title>4659332112&#45;&gt;4363201776+</title>
<path fill="none" stroke="black" d="M499.91,-85.05C509.48,-83.32 518.77,-81.64 527.16,-80.12"/>
<polygon fill="black" stroke="black" points="527.65,-83.59 536.87,-78.36 526.4,-76.7 527.65,-83.59"/>
</g>
<!-- 4363106384 -->
<g id="node2" class="node">
<title>4363106384</title>
<polygon fill="none" stroke="black" points="942,-27.5 942,-63.5 1134,-63.5 1134,-27.5 942,-27.5"/>
<text xml:space="preserve" text-anchor="middle" x="954.12" y="-40.7" font-family="Times,serif" font-size="14.00">L</text>
<polyline fill="none" stroke="black" points="966.25,-28 966.25,-63.5"/>
<text xml:space="preserve" text-anchor="middle" x="1009.5" y="-40.7" font-family="Times,serif" font-size="14.00">data 10.0000</text>
<polyline fill="none" stroke="black" points="1052.75,-28 1052.75,-63.5"/>
<text xml:space="preserve" text-anchor="middle" x="1093.38" y="-40.7" font-family="Times,serif" font-size="14.00">grad 0.0000</text>
</g>
<!-- 4363106384* -->
<g id="node3" class="node">
<title>4363106384*</title>
<ellipse fill="none" stroke="black" cx="879" cy="-45.5" rx="27" ry="18"/>
<text xml:space="preserve" text-anchor="middle" x="879" y="-40.45" font-family="Times,serif" font-size="14.00">*</text>
</g>
<!-- 4363106384*&#45;&gt;4363106384 -->
<g id="edge1" class="edge">
<title>4363106384*&#45;&gt;4363106384</title>
<path fill="none" stroke="black" d="M906.28,-45.5C913.4,-45.5 921.57,-45.5 930.27,-45.5"/>
<polygon fill="black" stroke="black" points="930.03,-49 940.03,-45.5 930.03,-42 930.03,-49"/>
</g>
<!-- 4659331792 -->
<g id="node4" class="node">
<title>4659331792</title>
<polygon fill="none" stroke="black" points="0,-56.5 0,-92.5 188.25,-92.5 188.25,-56.5 0,-56.5"/>
<text xml:space="preserve" text-anchor="middle" x="11.38" y="-69.7" font-family="Times,serif" font-size="14.00">b</text>
<polyline fill="none" stroke="black" points="22.75,-57 22.75,-92.5"/>
<text xml:space="preserve" text-anchor="middle" x="64.88" y="-69.7" font-family="Times,serif" font-size="14.00">data &#45;3.0000</text>
<polyline fill="none" stroke="black" points="107,-57 107,-92.5"/>
<text xml:space="preserve" text-anchor="middle" x="147.62" y="-69.7" font-family="Times,serif" font-size="14.00">grad 0.0000</text>
</g>
<!-- 4363201504* -->
<g id="node10" class="node">
<title>4363201504*</title>
<ellipse fill="none" stroke="black" cx="251.25" cy="-46.5" rx="27" ry="18"/>
<text xml:space="preserve" text-anchor="middle" x="251.25" y="-41.45" font-family="Times,serif" font-size="14.00">*</text>
</g>
<!-- 4659331792&#45;&gt;4363201504* -->
<g id="edge5" class="edge">
<title>4659331792&#45;&gt;4363201504*</title>
<path fill="none" stroke="black" d="M188.49,-57.65C197.36,-56.05 205.93,-54.5 213.73,-53.09"/>
<polygon fill="black" stroke="black" points="214.2,-56.56 223.42,-51.34 212.95,-49.68 214.2,-56.56"/>
</g>
<!-- 4363201776 -->
<g id="node5" class="node">
<title>4363201776</title>
<polygon fill="none" stroke="black" points="627.75,-55.5 627.75,-91.5 816,-91.5 816,-55.5 627.75,-55.5"/>
<text xml:space="preserve" text-anchor="middle" x="639.12" y="-68.7" font-family="Times,serif" font-size="14.00">d</text>
<polyline fill="none" stroke="black" points="650.5,-56 650.5,-91.5"/>
<text xml:space="preserve" text-anchor="middle" x="692.62" y="-68.7" font-family="Times,serif" font-size="14.00">data &#45;5.0000</text>
<polyline fill="none" stroke="black" points="734.75,-56 734.75,-91.5"/>
<text xml:space="preserve" text-anchor="middle" x="775.38" y="-68.7" font-family="Times,serif" font-size="14.00">grad 0.0000</text>
</g>
<!-- 4363201776&#45;&gt;4363106384* -->
<g id="edge4" class="edge">
<title>4363201776&#45;&gt;4363106384*</title>
<path fill="none" stroke="black" d="M816.24,-56.65C825.11,-55.05 833.68,-53.5 841.48,-52.09"/>
<polygon fill="black" stroke="black" points="841.95,-55.56 851.17,-50.34 840.7,-48.68 841.95,-55.56"/>
</g>
<!-- 4363201776+&#45;&gt;4363201776 -->
<g id="edge2" class="edge">
<title>4363201776+&#45;&gt;4363201776</title>
<path fill="none" stroke="black" d="M592.06,-73.5C599.24,-73.5 607.47,-73.5 616.22,-73.5"/>
<polygon fill="black" stroke="black" points="616.04,-77 626.04,-73.5 616.04,-70 616.04,-77"/>
</g>
<!-- 4363106128 -->
<g id="node7" class="node">
<title>4363106128</title>
<polygon fill="none" stroke="black" points="628.88,-0.5 628.88,-36.5 814.88,-36.5 814.88,-0.5 628.88,-0.5"/>
<text xml:space="preserve" text-anchor="middle" x="639.12" y="-13.7" font-family="Times,serif" font-size="14.00">f</text>
<polyline fill="none" stroke="black" points="649.38,-1 649.38,-36.5"/>
<text xml:space="preserve" text-anchor="middle" x="691.5" y="-13.7" font-family="Times,serif" font-size="14.00">data &#45;2.0000</text>
<polyline fill="none" stroke="black" points="733.62,-1 733.62,-36.5"/>
<text xml:space="preserve" text-anchor="middle" x="774.25" y="-13.7" font-family="Times,serif" font-size="14.00">grad 0.0000</text>
</g>
<!-- 4363106128&#45;&gt;4363106384* -->
<g id="edge6" class="edge">
<title>4363106128&#45;&gt;4363106384*</title>
<path fill="none" stroke="black" d="M815.35,-34.6C824.51,-36.19 833.37,-37.73 841.42,-39.13"/>
<polygon fill="black" stroke="black" points="840.6,-42.54 851.05,-40.81 841.8,-35.65 840.6,-42.54"/>
</g>
<!-- 4363171696 -->
<g id="node8" class="node">
<title>4363171696</title>
<polygon fill="none" stroke="black" points="2.62,-1.5 2.62,-37.5 185.62,-37.5 185.62,-1.5 2.62,-1.5"/>
<text xml:space="preserve" text-anchor="middle" x="13.62" y="-14.7" font-family="Times,serif" font-size="14.00">a</text>
<polyline fill="none" stroke="black" points="24.62,-2 24.62,-37.5"/>
<text xml:space="preserve" text-anchor="middle" x="64.5" y="-14.7" font-family="Times,serif" font-size="14.00">data 2.0000</text>
<polyline fill="none" stroke="black" points="104.38,-2 104.38,-37.5"/>
<text xml:space="preserve" text-anchor="middle" x="145" y="-14.7" font-family="Times,serif" font-size="14.00">grad 0.0000</text>
</g>
<!-- 4363171696&#45;&gt;4363201504* -->
<g id="edge9" class="edge">
<title>4363171696&#45;&gt;4363201504*</title>
<path fill="none" stroke="black" d="M185.81,-35.28C195.45,-36.96 204.82,-38.59 213.29,-40.07"/>
<polygon fill="black" stroke="black" points="212.65,-43.51 223.1,-41.77 213.85,-36.61 212.65,-43.51"/>
</g>
<!-- 4363201504 -->
<g id="node9" class="node">
<title>4363201504</title>
<polygon fill="none" stroke="black" points="314.25,-28.5 314.25,-64.5 501.75,-64.5 501.75,-28.5 314.25,-28.5"/>
<text xml:space="preserve" text-anchor="middle" x="325.25" y="-41.7" font-family="Times,serif" font-size="14.00">e</text>
<polyline fill="none" stroke="black" points="336.25,-29 336.25,-64.5"/>
<text xml:space="preserve" text-anchor="middle" x="378.38" y="-41.7" font-family="Times,serif" font-size="14.00">data &#45;6.0000</text>
<polyline fill="none" stroke="black" points="420.5,-29 420.5,-64.5"/>
<text xml:space="preserve" text-anchor="middle" x="461.12" y="-41.7" font-family="Times,serif" font-size="14.00">grad 0.0000</text>
</g>
<!-- 4363201504&#45;&gt;4363201776+ -->
<g id="edge8" class="edge">
<title>4363201504&#45;&gt;4363201776+</title>
<path fill="none" stroke="black" d="M502.14,-62.75C510.9,-64.28 519.38,-65.76 527.09,-67.1"/>
<polygon fill="black" stroke="black" points="526.22,-70.51 536.68,-68.78 527.43,-63.61 526.22,-70.51"/>
</g>
<!-- 4363201504*&#45;&gt;4363201504 -->
<g id="edge3" class="edge">
<title>4363201504*&#45;&gt;4363201504</title>
<path fill="none" stroke="black" d="M278.5,-46.5C285.66,-46.5 293.87,-46.5 302.6,-46.5"/>
<polygon fill="black" stroke="black" points="302.39,-50 312.39,-46.5 302.39,-43 302.39,-50"/>
</g>
</g>
</svg>
